<svg viewBox="0 0 400 300" xmlns="http://www.w3.org/2000/svg">
  <rect width="400" height="300" fill="#ececec"/>
  <rect x="80" y="55" width="180" height="150" rx="8" fill="#ffffff" stroke="#d8d8d8" stroke-width="2"/>
  <rect x="80" y="205" width="180" height="10" fill="#262626"/>
  <rect x="150" y="215" width="40" height="24" fill="#262626"/>
  <rect x="96" y="75" width="80" height="8" rx="4" fill="#e0e0e0"/>
  <circle cx="115" cy="140" r="30" fill="none" stroke="#e0e0e0" stroke-width="16"/>
  <path d="M115 110a30 30 0 0 1 26 45" fill="none" stroke="#f37021" stroke-width="16"/>
  <rect x="165" y="110" width="10" height="45" fill="#f37021"/>
  <rect x="180" y="95" width="10" height="60" fill="#c1440e"/>
  <rect x="195" y="120" width="10" height="35" fill="#f37021"/>
  <circle cx="290" cy="150" r="55" fill="#f37021"/>
  <circle cx="290" cy="128" r="16" fill="#ffffff"/>
  <path d="M262 190c0-18 12-32 28-32s28 14 28 32" fill="none" stroke="#ffffff" stroke-width="6" stroke-linecap="round"/>
</svg>
